<?xml version="1.0" encoding="UTF-8"?>
<svg id="Layer_1" xmlns="http://www.w3.org/2000/svg" xmlns:xlink="http://www.w3.org/1999/xlink" version="1.1" viewBox="0 0 924.14 559.78">
  <!-- Generator: Adobe Illustrator 30.0.0, SVG Export Plug-In . SVG Version: 2.1.1 Build 123)  -->
  <defs>
    <style>
      .st0, .st1 {
        fill: none;
      }

      .st2 {
        fill: #e2e2e4;
      }

      .st2, .st3 {
        stroke-width: .94px;
      }

      .st2, .st3, .st1 {
        stroke: #000;
        stroke-miterlimit: 10;
      }

      .st4, .st3 {
        fill: #fff;
      }

      .st5 {
        clip-path: url(#clippath);
      }
    </style>
    <clipPath id="clippath">
      <rect class="st0" x="574.46" y="94.01" width="43.55" height="54.56"/>
    </clipPath>
  </defs>
  <g>
    <path class="st4" d="M714.65,526.08c-1.34-.44-52.37-109.34-54.6-113.34-2.23-4.01-32.49-13.35-48.51-31.15-16.02-17.8-30.71-49.85-35.16-57.42s-13.8-20.03-17.8-27.15-.44-21.81-3.11-27.6c-2.67-5.78-9.64-18.69-9.64-25.37s3.86-10.68,3.41-16.92c-.44-6.23-2.23-14.24,0-18.03s14.69-11.97,20.47-10.77c5.78,1.2,25.37,14.58,28.04,26.36s-2.67,25.58,7.57,26.91c10.24,1.34,16.17-22.7,20.55-37.83,4.37-15.13,12.83-29.38,14.61-40.5,1.78-11.13,8.45-44.95,8.9-53.85.44-8.9,3.11-34.17,1.78-38.67-1.34-4.5-1.34-24.09.44-35.21s6.23-19.59,11.57-21.36c5.34-1.78,15.13-1.34,18.69,5.34,3.56,6.68,4.45,26.26,7.57,36.5,3.11,10.24,10.68,18.25,10.68,27.15s-4.9,25.81-3.56,40.94c1.34,15.13,4.45,29.38,9.35,28.04s8.9-11.57,10.24-20.03c1.34-8.45,2.47-20.47,2.79-26.26.32-5.78-3.23-16.47-2.79-23.59.44-7.12,1.78-15.58,8.01-16.92,6.23-1.34,12.91.55,16.47,5.39,3.56,4.85,6.23,10.63,12.91,19.98,6.68,9.35,12.46,19.59,12.91,24.93.44,5.34-4.45,20.22-5.34,26.69-.89,6.47-1.78,22.71,1.34,22.27,3.11-.44,5.57-12.02,5.57-14.24s-10.01-9.79-11.57-14.24c-1.56-4.45,1.34-13.8,3.78-16.47s7.12-4.9,12.24-3.56,12.91,8.24,20.92,12.02c8.01,3.78,18.69,11.79,18.92,18.92.22,7.12-8.24,35.16-9.35,43.4s-.44,27.37,2.67,28.48c3.11,1.11,6.23-1.34,5.34-4.01-.89-2.67-4.9-8.9-4.9-14.46s3.34-10.68,7.34-11.57c4.01-.89,10.91,4.45,19.59,6.68s10.91,7.57,13.58,12.02,4.01,15.8,2,21.14c-2,5.34-11.57,22.26-12.46,28.71-.89,6.45-6.68,29.82-6.68,38.06s-2.9,34.87-3.64,52.08,4.01,29.67,12.31,40.35c8.31,10.68,38.57,50.44,38.57,50.44l-162.01,77.74h-.02Z"/>
    <g class="st5">
      <g>
        <ellipse class="st4" cx="595.93" cy="121.15" rx="18.21" ry="27.33"/>
        <ellipse class="st4" cx="599.38" cy="121.15" rx="18.21" ry="27.33"/>
        <ellipse class="st2" cx="595.93" cy="121.15" rx="14.87" ry="22.31"/>
        <ellipse class="st3" cx="595.93" cy="121.15" rx="14.87" ry="22.31"/>
      </g>
    </g>
  </g>
  <g>
    <path class="st4" d="M123.35,249.7h-5.67c-.52-5.01-1.62-8.71-3.31-11.09-1.69-2.39-3.51-3.86-5.46-4.41-1.95-.56-4.19-.83-6.74-.83h-10.26v59.21c0,2.35.24,4.17.72,5.46.48,1.29,1.59,2.3,3.34,3.01,1.75.72,4.31,1.07,7.69,1.07v5.49h-40.55v-5.49c4.97,0,8.17-.71,9.6-2.15,1.43-1.43,2.15-3.9,2.15-7.39v-59.21h-8.59c-3.38,0-6.18.27-8.41.81s-4.18,2.01-5.87,4.41c-1.69,2.41-2.65,6.11-2.89,11.12h-5.67v-22.96h79.91v22.96h.01Z"/>
    <path class="st4" d="M195.74,307.6h-30.65v-5.49c2.74,0,4.63-.49,5.66-1.46,1.03-.97,1.55-2.39,1.55-4.26v-20.04c0-1.99-.13-3.78-.39-5.37-.26-1.59-.94-3.03-2.06-4.32-1.11-1.29-2.82-1.94-5.13-1.94-1.87,0-3.77.51-5.69,1.52-1.93,1.01-3.41,2.34-4.44,3.97-1.11,1.83-1.82,3.59-2.12,5.28-.3,1.69-.45,3.73-.45,6.11v10.26c0,2.78.11,4.82.33,6.11s.83,2.31,1.85,3.04,2.69,1.1,5.04,1.1v5.49h-31.25v-5.49c2.66,0,4.62-.28,5.87-.83,1.25-.56,2.03-1.38,2.33-2.47.3-1.09.45-2.89.45-5.4v-50.03c0-2.98-.48-4.98-1.43-5.99s-3.36-1.54-7.22-1.58v-5.37l24.03-5.13v40.25c2.35-2.46,4.78-4.54,7.3-6.23s6.03-2.53,10.53-2.53c2.07,0,4.13.3,6.2.89,2.07.6,3.93,1.47,5.58,2.62,1.65,1.15,2.85,2.47,3.61,3.94,1.63,2.9,2.44,6.68,2.44,11.33v17.83c0,3.34.43,5.63,1.28,6.86s3.11,1.85,6.77,1.85v5.49h0Z"/>
    <path class="st4" d="M255.85,281.36h-36.67c.04.75.15,2.37.33,4.83s.74,4.99,1.67,7.57c.93,2.58,2.54,4.76,4.83,6.53,2.29,1.77,5.36,2.65,9.21,2.65,2.11,0,4.65-.54,7.63-1.61s5.57-3.14,7.75-6.2l4.65,3.16c-4.69,7.51-12.15,11.27-22.36,11.27-4.57,0-8.74-.66-12.49-1.97s-6.95-3.14-9.57-5.49c-2.62-2.34-4.63-5.11-6.02-8.29-1.39-3.18-2.09-6.6-2.09-10.26,0-4.81,1.16-9.26,3.49-13.36,2.33-4.09,5.65-7.35,9.99-9.78,4.33-2.42,9.28-3.64,14.85-3.64s10.05,1.17,13.8,3.52c3.76,2.35,6.53,5.39,8.32,9.12,1.79,3.74,2.68,7.71,2.68,11.93v.02ZM241.06,275.88c0-9.06-3.58-13.6-10.73-13.6-3.46,0-6.11,1.25-7.96,3.76-1.85,2.5-2.87,5.79-3.07,9.84h21.77,0Z"/>
    <path class="st4" d="M166.02,424.81l-2.27,39.81H45.6v-9.29l80.12-113.7h-31.32c-7.57,0-13.57.41-17.98,1.23-4.41.82-8.28,3.03-11.61,6.62-3.33,3.59-5.55,9.27-6.67,17.04h-9.48l2.47-35.86h110.25v8.89l-80.12,114.1h38.43c4.87,0,8.94-.2,12.2-.59,3.26-.4,6.62-1.48,10.08-3.26s6.49-4.64,9.09-8.59c2.6-3.95,4.56-9.42,5.88-16.4h9.09,0Z"/>
    <path class="st4" d="M280.51,443.77c0,5.01-1.02,9.27-3.06,12.79-2.04,3.52-4.79,6.12-8.25,7.8s-7.36,2.52-11.71,2.52c-5.53,0-10.14-1.3-13.83-3.9-3.69-2.6-5.89-5.71-6.62-9.33-11,8.83-22.06,13.24-33.19,13.24-7.11,0-12.94-1.73-17.48-5.19s-6.82-8.02-6.82-13.68c0-4.68,1.22-8.91,3.65-12.69,2.44-3.79,6.01-7.16,10.72-10.13,4.71-2.96,10.32-5.58,16.84-7.85,6.52-2.27,14.65-4.66,24.4-7.16v-5.63c0-4.67-1.1-8.35-3.31-11.01-2.21-2.67-6.27-4-12.2-4-5.07,0-8.73,1.05-10.97,3.16s-3.72,5.3-4.45,9.58c-.53,3.03-1.5,5.52-2.91,7.46-1.42,1.94-4.36,2.91-8.84,2.91-2.77,0-5.2-.79-7.31-2.37s-3.16-3.92-3.16-7.01c0-6.12,3.32-11.46,9.98-16,6.65-4.54,16.86-6.82,30.62-6.82,14.49,0,24.45,2.44,29.88,7.31,5.43,4.88,8.15,11.39,8.15,19.56v31.22c0,3.95.1,6.85.3,8.69.2,1.84.74,3.25,1.63,4.2.89.96,2.29,1.43,4.2,1.43,1.71,0,3.21-.89,4.5-2.67,1.28-1.78,1.93-3.92,1.93-6.42h7.31ZM235.17,444.56v-24.5c-12.51,3.95-20.47,7.82-23.86,11.61s-5.09,7.49-5.09,11.11c0,3.03.92,5.47,2.77,7.31,1.84,1.84,4.45,2.77,7.8,2.77,3.62,0,6.82-.76,9.58-2.27,2.77-1.51,5.7-3.52,8.79-6.03h.01Z"/>
    <path class="st4" d="M395,464.62h-50.78v-9.09c4.54,0,7.67-.81,9.38-2.42s2.57-3.97,2.57-7.06v-33.19c0-3.29-.21-6.26-.64-8.89-.43-2.63-1.56-5.02-3.41-7.16-1.84-2.14-4.68-3.21-8.5-3.21-3.1,0-6.24.84-9.43,2.52s-5.65,3.87-7.36,6.57c-1.84,3.03-3.01,5.94-3.51,8.74-.49,2.8-.74,6.17-.74,10.12v16.99c0,4.61.18,7.99.54,10.13.36,2.14,1.38,3.82,3.06,5.04s4.46,1.83,8.35,1.83v9.09h-51.76v-9.09c4.41,0,7.66-.46,9.73-1.38s3.36-2.29,3.85-4.1c.49-1.81.74-4.79.74-8.94v-82.88c0-4.94-.79-8.25-2.37-9.93s-5.57-2.55-11.95-2.62v-8.89l39.81-8.5v66.68c3.89-4.08,7.92-7.52,12.1-10.32s9.99-4.2,17.44-4.2c3.42,0,6.85.49,10.27,1.48,3.42.99,6.5,2.44,9.24,4.35,2.73,1.91,4.72,4.08,5.98,6.52,2.7,4.81,4.05,11.06,4.05,18.77v29.54c0,5.53.71,9.32,2.12,11.36,1.42,2.04,5.15,3.06,11.21,3.06v9.09h.01Z"/>
    <path class="st4" d="M456.94,464.62h-53.64v-9.09h2.87c3.82,0,6.6-.53,8.35-1.58,1.74-1.05,2.82-2.53,3.21-4.45.4-1.91.59-4.71.59-8.4v-29.34c0-4.08-.25-6.98-.74-8.69s-1.78-2.96-3.85-3.75-5.55-1.22-10.42-1.28v-9.09l40.5-8.5v60.65c0,5.53.69,9.32,2.07,11.36s5.07,3.06,11.06,3.06v9.09h0ZM445.78,341.82c0,3.95-1.4,7.33-4.2,10.13-2.8,2.8-6.17,4.2-10.13,4.2s-7.26-1.43-10.13-4.3c-2.86-2.87-4.3-6.21-4.3-10.03s1.42-7.34,4.25-10.17c2.83-2.83,6.22-4.25,10.17-4.25s7.41,1.38,10.18,4.15,4.15,6.19,4.15,10.27h.01Z"/>
    <path class="st4" d="M550.99,396.06c0,3.82-1.17,6.83-3.51,9.04-2.34,2.21-5.09,3.31-8.25,3.31-3.75,0-7.05-1.84-9.88-5.53-1.32-1.64-2.41-2.83-3.26-3.56-.86-.72-2.08-1.09-3.66-1.09-5.14,0-9.14,2.78-12,8.35-2.86,5.57-4.3,11.34-4.3,17.34v17.19c0,5.53.71,9.32,2.12,11.36,1.42,2.04,5.15,3.06,11.21,3.06h5.24v9.09h-61.35v-9.09h5.14c5.53,0,8.92-1.05,10.18-3.16,1.25-2.11,1.88-5.86,1.88-11.26v-28.85c0-4.41-.44-7.57-1.33-9.48s-2.49-3.18-4.79-3.8c-2.31-.62-5.99-.94-11.06-.94v-9.09l38.53-8.5c.99,3.36,1.91,10.5,2.77,21.44,1.84-3.88,4.26-7.44,7.26-10.67s6.35-5.83,10.08-7.8c3.72-1.98,7.52-2.96,11.41-2.96,5.4,0,9.68,1.52,12.84,4.54,3.16,3.03,4.74,6.72,4.74,11.06h-.01Z"/>
  </g>
  <line class="st1" x1="389.58" y1="-135.99" x2="400.88" y2="-135.99"/>
  <line class="st1" x1="392.22" y1="-140.88" x2="403.51" y2="-140.88"/>
  <line class="st1" x1="395.22" y1="-147.88" x2="406.51" y2="-147.88"/>
  <line class="st1" x1="385.44" y1="-131.1" x2="396.73" y2="-131.1"/>
  <line class="st1" x1="382.49" y1="-127.14" x2="393.78" y2="-127.14"/>
</svg>